<svg width="22" height="22" viewBox="0 0 22 22" fill="none" xmlns="http://www.w3.org/2000/svg">
<path id="Exclude" fill-rule="evenodd" clip-rule="evenodd" d="M18.7924 3.23255C16.9494 1.56049 14.5745 0.493717 12.17 0.257949C8.77663 -0.0747913 5.52607 1.07728 3.13874 3.45874C1.62495 4.96879 0.627486 6.80055 0.210508 8.83609C0.0326584 9.70437 -0.00191138 10.0781 7.92553e-05 11.1121C0.00221943 12.2123 0.0614059 12.7446 0.281245 13.6398C1.04834 16.7641 3.24868 19.3167 6.30458 20.6275C6.79039 20.8359 6.88184 20.8639 6.68635 20.7447C6.45391 20.6029 6.56079 20.6335 6.95431 20.8215C7.40322 21.0359 8.13211 21.2868 8.5525 21.3717C9.56853 21.577 10.8815 21.6675 11.6532 21.5854C12.6483 21.4797 13.9094 21.2119 14.6036 20.9591C16.1871 20.3824 17.4202 19.5875 18.5495 18.4154C19.8851 17.0291 20.7605 15.3548 21.0761 13.5824C21.1878 12.9553 21.2141 11.7226 21.1314 10.9822C20.9146 9.03824 20.2182 7.38097 19.1369 6.23533C18.3432 5.3944 17.1876 4.71104 15.8014 4.2629C15.0448 4.01829 14.6064 3.95203 13.7394 3.95123C13.0785 3.95057 12.9165 3.96279 12.5547 4.04046C10.6879 4.4413 9.20682 5.55886 8.40351 7.17285C8.05784 7.86732 7.90174 8.52116 7.90174 9.27462C7.90174 9.82329 7.96398 10.1933 8.12755 10.6168C8.31631 11.1054 8.59828 11.4686 9.01186 11.7557L9.18412 11.8752L9.04276 11.7095C8.5543 11.1371 8.45772 10.1511 8.80806 9.31406C9.18507 8.41331 10.0749 7.68406 11.1664 7.3812C13.4363 6.75141 16.0377 7.72052 17.3601 9.68855C17.8668 10.4427 18.1342 11.231 18.2391 12.2804C18.4011 13.9019 17.6996 15.607 16.3294 16.9223C15.4415 17.7746 14.1618 18.4373 12.8399 18.7293C11.5689 19.0102 10.5921 19.0068 9.4138 18.7175C7.93887 18.3554 6.83499 17.7698 5.94785 16.8789C5.23948 16.1676 4.40646 15.0212 4.01681 14.2215C3.15723 12.4572 3.03634 10.3041 3.6778 8.18352C3.85822 7.58713 3.95586 7.34362 4.28496 6.66945C4.77287 5.66996 5.28326 4.96848 6.14372 4.11465C6.67528 3.58723 6.68213 3.55062 6.1887 3.87489C6.07819 3.94755 5.98773 3.99929 5.98773 3.98987C5.98773 3.98049 6.14985 3.84364 6.34795 3.68585C7.59378 2.69357 8.73111 2.08078 10.0078 1.71407C10.5858 1.54801 11.0759 1.45716 11.902 1.36291C13.0497 1.23193 13.9628 1.28968 14.9696 1.55697C17.2186 2.15397 19.4403 3.75383 20.7197 5.6975C21.1121 6.2937 21.129 6.31687 21.0088 6.09497C20.4781 5.11559 19.5576 3.92679 18.7924 3.23255ZM14.9384 10.2725C14.8053 10.1996 14.5438 10.0959 14.3572 10.042C13.9276 9.91792 13.2424 9.90712 12.8318 10.018C11.9215 10.2636 11.1563 10.9142 10.7394 11.7969C10.5627 12.1712 10.5009 12.4487 10.478 12.971C10.46 13.3813 10.4688 13.4983 10.5387 13.7753C10.6966 14.4008 11.0136 14.9371 11.4929 15.3895C11.8311 15.7087 12.183 15.9182 12.6485 16.0774C12.9859 16.1928 13.0479 16.2017 13.5098 16.2013C14.1212 16.2007 14.5387 16.1083 15.041 15.8624C15.9561 15.4143 16.5796 14.5332 16.7084 13.5063C16.7667 13.041 16.6555 12.4107 16.4467 12.0234L16.3806 11.9006L16.3807 12.2402C16.3808 12.556 16.3727 12.5913 16.2659 12.7426C15.9772 13.1518 15.3976 13.1944 15.0365 12.8331C14.7342 12.5307 14.732 12.0227 15.0315 11.6814C15.15 11.5464 15.1509 11.5429 15.0592 11.5713C14.7751 11.6594 14.4797 11.9067 14.3025 12.2048C14.186 12.4008 14.1322 12.7903 14.1832 13.069C14.3011 13.7132 14.7823 14.109 15.4049 14.0738C15.5488 14.0656 15.659 14.0713 15.6497 14.0864C15.6071 14.1553 15.2097 14.3479 14.9972 14.4027C14.3108 14.5795 13.5639 14.354 13.0636 13.8189C12.5843 13.3063 12.4251 12.6404 12.6093 11.9197C12.7052 11.5446 12.8477 11.2812 13.0815 11.0468C13.4943 10.6328 14.1226 10.4578 14.8489 10.5545C15.0339 10.5792 15.2648 10.6306 15.3619 10.6689C15.4591 10.7072 15.5731 10.7519 15.6152 10.7683C15.75 10.8207 15.1894 10.4101 14.9384 10.2725Z" fill="#FFF500"/>
</svg>
