<svg width="113" height="26" viewBox="0 0 113 26" fill="none" xmlns="http://www.w3.org/2000/svg">
<path d="M38.9405 7.448C39.1751 7.448 39.3731 7.536 39.5345 7.712C39.7105 7.87333 39.7985 8.07133 39.7985 8.306V8.79C39.7985 8.89267 39.7618 8.98067 39.6885 9.054C39.6151 9.11267 39.5271 9.142 39.4245 9.142H38.9405C38.7058 9.142 38.5078 9.06133 38.3465 8.9C38.1851 8.73867 38.1045 8.54067 38.1045 8.306V7.866C38.1045 7.74867 38.0605 7.65333 37.9725 7.58C37.8991 7.492 37.8111 7.448 37.7085 7.448H37.2685C37.0338 7.448 36.8285 7.36733 36.6525 7.206C36.4911 7.04467 36.4105 6.84667 36.4105 6.612V6.172C36.4105 6.05467 36.3665 5.95933 36.2785 5.886C36.2051 5.798 36.1171 5.754 36.0145 5.754H30.0085C29.9058 5.754 29.8178 5.79067 29.7445 5.864C29.6711 5.93733 29.6345 6.02533 29.6345 6.128V6.612C29.6345 6.84667 29.5538 7.04467 29.3925 7.206C29.2311 7.36733 29.0331 7.448 28.7985 7.448H28.3585C28.2411 7.448 28.1385 7.492 28.0505 7.58C27.9771 7.65333 27.9405 7.74867 27.9405 7.866V17.216C27.9405 17.3333 27.9771 17.4287 28.0505 17.502C28.1385 17.5753 28.2411 17.612 28.3585 17.612H28.7985C29.0331 17.612 29.2311 17.7 29.3925 17.876C29.5538 18.0373 29.6345 18.2353 29.6345 18.47V18.91C29.6345 19.0273 29.6711 19.1227 29.7445 19.196C29.8325 19.2693 29.9351 19.306 30.0525 19.306H36.0145C36.1318 19.306 36.2271 19.2693 36.3005 19.196C36.3738 19.108 36.4105 19.0127 36.4105 18.91V18.47C36.4105 18.2207 36.4911 18.0153 36.6525 17.854C36.8285 17.6927 37.0338 17.612 37.2685 17.612H37.7085C37.8258 17.612 37.9211 17.5753 37.9945 17.502C38.0678 17.414 38.1045 17.3187 38.1045 17.216V16.776C38.1045 16.5413 38.1851 16.3433 38.3465 16.182C38.5078 16.006 38.7058 15.918 38.9405 15.918H39.4245C39.5271 15.918 39.6151 15.9547 39.6885 16.028C39.7618 16.1013 39.7985 16.1893 39.7985 16.292V16.776C39.7985 17.0107 39.7105 17.2087 39.5345 17.37C39.3731 17.5313 39.1751 17.612 38.9405 17.612H38.5005C38.3831 17.612 38.2878 17.656 38.2145 17.744C38.1411 17.8173 38.1045 17.9127 38.1045 18.03V18.47C38.1045 18.7047 38.0238 18.9027 37.8625 19.064C37.7011 19.2253 37.5031 19.306 37.2685 19.306H36.8065C36.6891 19.306 36.5938 19.35 36.5205 19.438C36.4471 19.5113 36.4105 19.6067 36.4105 19.724V20.164C36.4105 20.3987 36.3298 20.5967 36.1685 20.758C36.0071 20.9193 35.8091 21 35.5745 21H30.4925C30.2578 21 30.0525 20.9193 29.8765 20.758C29.7151 20.5967 29.6345 20.3987 29.6345 20.164V19.724C29.6345 19.6067 29.5978 19.5113 29.5245 19.438C29.4511 19.35 29.3558 19.306 29.2385 19.306H28.7985C28.5638 19.306 28.3585 19.2253 28.1825 19.064C28.0211 18.9027 27.9405 18.7047 27.9405 18.47V18.03C27.9405 17.9127 27.9038 17.8173 27.8305 17.744C27.7571 17.656 27.6618 17.612 27.5445 17.612H27.1045C26.8698 17.612 26.6645 17.5313 26.4885 17.37C26.3271 17.2087 26.2465 17.0107 26.2465 16.776V8.306C26.2465 8.07133 26.3271 7.87333 26.4885 7.712C26.6645 7.536 26.8698 7.448 27.1045 7.448H27.5445C27.6618 7.448 27.7571 7.41133 27.8305 7.338C27.9038 7.25 27.9405 7.15467 27.9405 7.052V4.918C27.9405 4.68333 28.0211 4.48533 28.1825 4.324C28.3585 4.148 28.5638 4.06 28.7985 4.06H35.5745C35.8091 4.06 36.0071 4.148 36.1685 4.324C36.3298 4.48533 36.4105 4.68333 36.4105 4.918V5.358C36.4105 5.46067 36.4471 5.556 36.5205 5.644C36.6085 5.71733 36.7038 5.754 36.8065 5.754H37.2685C37.5031 5.754 37.7011 5.842 37.8625 6.018C38.0238 6.17933 38.1045 6.37733 38.1045 6.612V7.052C38.1045 7.15467 38.1411 7.25 38.2145 7.338C38.3025 7.41133 38.3978 7.448 38.5005 7.448H38.9405ZM53.6428 4.918C53.6428 4.68333 53.7235 4.48533 53.8848 4.324C54.0461 4.148 54.2441 4.06 54.4788 4.06H54.9628C55.0655 4.06 55.1535 4.09667 55.2268 4.17C55.3001 4.24333 55.3368 4.33133 55.3368 4.434V20.164C55.3368 20.3987 55.2488 20.5967 55.0728 20.758C54.9115 20.9193 54.7135 21 54.4788 21H54.0168C53.9141 21 53.8261 20.9633 53.7528 20.89C53.6795 20.8167 53.6428 20.7287 53.6428 20.626V13.388C53.6428 13.6227 53.5548 13.8207 53.3788 13.982C53.2175 14.1433 53.0195 14.224 52.7848 14.224H46.0088C45.7741 14.224 45.5761 14.1433 45.4148 13.982C45.2535 13.8207 45.1728 13.6227 45.1728 13.388V12.948C45.1728 12.8307 45.1288 12.7353 45.0408 12.662C44.9675 12.574 44.8721 12.53 44.7548 12.53H44.3148C44.0801 12.53 43.8821 12.4493 43.7208 12.288C43.5595 12.1267 43.4788 11.9287 43.4788 11.694V20.164C43.4788 20.3987 43.3908 20.5967 43.2148 20.758C43.0535 20.9193 42.8555 21 42.6208 21H42.1588C42.0561 21 41.9681 20.9633 41.8948 20.89C41.8215 20.8167 41.7848 20.7287 41.7848 20.626V4.918C41.7848 4.68333 41.8655 4.48533 42.0268 4.324C42.1881 4.148 42.3861 4.06 42.6208 4.06H43.1048C43.2075 4.06 43.2955 4.09667 43.3688 4.17C43.4421 4.24333 43.4788 4.33133 43.4788 4.434V10.462C43.4788 10.5647 43.5155 10.6527 43.5888 10.726C43.6621 10.7993 43.7501 10.836 43.8528 10.836H44.3148C44.5641 10.836 44.7695 10.9167 44.9308 11.078C45.0921 11.2393 45.1728 11.4447 45.1728 11.694V12.134C45.1728 12.2367 45.2095 12.332 45.2828 12.42C45.3708 12.4933 45.4661 12.53 45.5688 12.53H53.2688C53.3715 12.53 53.4595 12.4933 53.5328 12.42C53.6061 12.3467 53.6428 12.2587 53.6428 12.156V4.918ZM57.5329 4.918C57.5329 4.68333 57.6135 4.48533 57.7749 4.324C57.9509 4.16267 58.1562 4.082 58.3909 4.082H58.8749C58.9775 4.082 59.0582 4.11867 59.1169 4.192C59.1902 4.25067 59.2269 4.33133 59.2269 4.434V20.164C59.2269 20.3987 59.1462 20.5967 58.9849 20.758C58.8235 20.9193 58.6255 21 58.3909 21H57.9069C57.8042 21 57.7162 20.9633 57.6429 20.89C57.5695 20.8167 57.5329 20.7287 57.5329 20.626V4.918Z" fill="#FFF500"/>
<path d="M65.2436 21V4.08H69.9236L77.6756 20.352H78.3236L77.9156 18.768V4.08H80.2676V21H75.5876L67.8116 4.728H67.1636L67.5716 6.312V21H65.2436ZM83.3373 21V4.08H94.5933V6.096H85.6653V12.48L93.6093 12V14.04L85.6653 14.52V21H83.3373ZM110.741 4.08V6.096H104.933V21H102.605V6.096H96.797V4.08H110.741Z" fill="#FFF500"/>
<path fill-rule="evenodd" clip-rule="evenodd" d="M18.7924 6.23255C16.9494 4.56049 14.5745 3.49372 12.17 3.25795C8.77663 2.92521 5.52607 4.07728 3.13874 6.45874C1.62495 7.96879 0.627486 9.80055 0.210508 11.8361C0.0326584 12.7044 -0.00191138 13.0781 7.92553e-05 14.1121C0.00221943 15.2123 0.0614059 15.7446 0.281245 16.6398C1.04834 19.7641 3.24868 22.3167 6.30458 23.6275C6.79039 23.8359 6.88184 23.8639 6.68635 23.7447C6.45391 23.6029 6.56079 23.6335 6.95431 23.8215C7.40322 24.0359 8.13211 24.2868 8.5525 24.3717C9.56853 24.577 10.8815 24.6675 11.6532 24.5854C12.6483 24.4797 13.9094 24.2119 14.6036 23.9591C16.1871 23.3824 17.4202 22.5875 18.5495 21.4154C19.8851 20.0291 20.7605 18.3548 21.0761 16.5824C21.1878 15.9553 21.2141 14.7226 21.1314 13.9822C20.9146 12.0382 20.2182 10.381 19.1369 9.23533C18.3432 8.3944 17.1876 7.71104 15.8014 7.2629C15.0448 7.01829 14.6064 6.95203 13.7394 6.95123C13.0785 6.95057 12.9165 6.96279 12.5547 7.04046C10.6879 7.4413 9.20682 8.55886 8.40351 10.1729C8.05784 10.8673 7.90174 11.5212 7.90174 12.2746C7.90174 12.8233 7.96398 13.1933 8.12755 13.6168C8.31631 14.1054 8.59828 14.4686 9.01186 14.7557L9.18412 14.8752L9.04276 14.7095C8.5543 14.1371 8.45772 13.1511 8.80806 12.3141C9.18507 11.4133 10.0749 10.6841 11.1664 10.3812C13.4363 9.75141 16.0377 10.7205 17.3601 12.6885C17.8668 13.4427 18.1342 14.231 18.2391 15.2804C18.4011 16.9019 17.6996 18.607 16.3294 19.9223C15.4415 20.7746 14.1618 21.4373 12.8399 21.7293C11.5689 22.0102 10.5921 22.0068 9.4138 21.7175C7.93887 21.3554 6.83499 20.7698 5.94785 19.8789C5.23948 19.1676 4.40646 18.0212 4.01681 17.2215C3.15723 15.4572 3.03634 13.3041 3.6778 11.1835C3.85822 10.5871 3.95586 10.3436 4.28496 9.66945C4.77287 8.66996 5.28326 7.96848 6.14372 7.11465C6.67528 6.58723 6.68213 6.55062 6.1887 6.87489C6.07819 6.94755 5.98773 6.99929 5.98773 6.98987C5.98773 6.98049 6.14985 6.84364 6.34795 6.68585C7.59378 5.69357 8.73111 5.08078 10.0078 4.71407C10.5858 4.54801 11.0759 4.45716 11.902 4.36291C13.0497 4.23193 13.9628 4.28968 14.9696 4.55697C17.2186 5.15397 19.4403 6.75383 20.7197 8.6975C21.1121 9.2937 21.129 9.31687 21.0088 9.09497C20.4781 8.11559 19.5576 6.92679 18.7924 6.23255ZM14.9384 13.2725C14.8053 13.1996 14.5438 13.0959 14.3572 13.042C13.9276 12.9179 13.2424 12.9071 12.8318 13.018C11.9215 13.2636 11.1563 13.9142 10.7394 14.7969C10.5627 15.1712 10.5009 15.4487 10.478 15.971C10.46 16.3813 10.4688 16.4983 10.5387 16.7753C10.6966 17.4008 11.0136 17.9371 11.4929 18.3895C11.8311 18.7087 12.183 18.9182 12.6485 19.0774C12.9859 19.1928 13.0479 19.2017 13.5098 19.2013C14.1212 19.2007 14.5387 19.1083 15.041 18.8624C15.9561 18.4143 16.5796 17.5332 16.7084 16.5063C16.7667 16.041 16.6555 15.4107 16.4467 15.0234L16.3806 14.9006L16.3807 15.2402C16.3808 15.556 16.3727 15.5913 16.2659 15.7426C15.9772 16.1518 15.3976 16.1944 15.0365 15.8331C14.7342 15.5307 14.732 15.0227 15.0315 14.6814C15.15 14.5464 15.1509 14.5429 15.0592 14.5713C14.7751 14.6594 14.4797 14.9067 14.3025 15.2048C14.186 15.4008 14.1322 15.7903 14.1832 16.069C14.3011 16.7132 14.7823 17.109 15.4049 17.0738C15.5488 17.0656 15.659 17.0713 15.6497 17.0864C15.6071 17.1553 15.2097 17.3479 14.9972 17.4027C14.3108 17.5795 13.5639 17.354 13.0636 16.8189C12.5843 16.3063 12.4251 15.6404 12.6093 14.9197C12.7052 14.5446 12.8477 14.2812 13.0815 14.0468C13.4943 13.6328 14.1226 13.4578 14.8489 13.5545C15.0339 13.5792 15.2648 13.6306 15.3619 13.6689C15.4591 13.7072 15.5731 13.7519 15.6152 13.7683C15.75 13.8207 15.1894 13.4101 14.9384 13.2725Z" fill="#FFF500"/>
</svg>
